<?xml version="1.0" encoding="UTF-8"?>
<svg width="2565px" height="465px" version="1.1" viewBox="0 0 2565 465" xmlns="http://www.w3.org/2000/svg" xmlns:cc="http://creativecommons.org/ns#" xmlns:dc="http://purl.org/dc/elements/1.1/" xmlns:rdf="http://www.w3.org/1999/02/22-rdf-syntax-ns#" xmlns:xlink="http://www.w3.org/1999/xlink">
 <metadata>
  <rdf:RDF>
   <cc:Work rdf:about="">
    <dc:format>image/svg+xml</dc:format>
    <dc:type rdf:resource="http://purl.org/dc/dcmitype/StillImage"/>
    <dc:title>Drive Lockup - with gray Google</dc:title>
   </cc:Work>
  </rdf:RDF>
 </metadata>
 <!-- Generator: Sketch 51.2 (57519) - http://www.bohemiancoding.com/sketch -->
 <title>Drive Lockup - with gray Google</title>
 <desc>Created with Sketch.</desc>
 <defs>
  <path id="path-1" d="m279.28 0h-137.42l-141.86 247.25 67.062 119.05h287.02l67.062-119.05-141.86-247.25zm-143.26 247.25 74.546-128.66 74.546 128.66h-149.09z"/>
  <path id="path-4" d="m279.28 0h-137.42l-141.86 247.25 67.062 119.05h287.02l67.062-119.05-141.86-247.25zm-143.26 247.25 74.546-128.66 74.546 128.66h-149.09z"/>
  <path id="path-6" d="m279.28 0h-137.42l-141.86 247.25 67.062 119.05h287.02l67.062-119.05-141.86-247.25zm-143.26 247.25 74.546-128.66 74.546 128.66h-149.09z"/>
  <path id="path-8" d="m279.28 0h-137.42l-141.86 247.25 67.062 119.05h287.02l67.062-119.05-141.86-247.25zm-143.26 247.25 74.546-128.66 74.546 128.66h-149.09z"/>
  <polygon id="path-10" points="0.042915 119.05 287.06 119.05 354.12 0 69.005 0"/>
  <path id="path-12" d="m279.28 0h-137.42l-141.86 247.25 67.062 119.05h287.02l67.062-119.05-141.86-247.25zm-143.26 247.25 74.546-128.66 74.546 128.66h-149.09z"/>
  <polygon id="path-14" points="141.86 0 0 247.25 67.062 366.29 210.57 118.59"/>
 </defs>
 <g id="Drive-Lockup---with-gray-Google" fill="none" fill-rule="evenodd">
  <g id="logo_drive_96in128dp" transform="translate(11.564 2.8918)">
   <g transform="translate(9.1552 36.629)">
    <g id="Clipped">
     <mask id="mask-2" fill="white">
      <use xlink:href="#path-1"/>
     </mask>
     <g mask="url(#mask-2)">
      <g transform="translate(67.019 247.25)">
       <polygon id="Shape" points="0.042915 0 0.042915 119.05 287.06 119.05 354.12 0" fill="#4285F4" fill-rule="nonzero"/>
      </g>
     </g>
     <mask id="mask-5" fill="white">
      <use xlink:href="#path-4"/>
     </mask>
     <g fill-rule="nonzero" mask="url(#mask-5)">
      <polygon points="141.86 0 0 247.25 67.062 366.29 228.86 87.018" fill="#0F9D58"/>
     </g>
     <mask id="mask-7" fill="white">
      <use xlink:href="#path-6"/>
     </mask>
     <g mask="url(#mask-7)">
      <g transform="translate(141.76)">
       <polygon points="137.52 0 0.097274 0 143.35 247.25 279.38 247.25" fill="#FFCD40" fill-rule="nonzero"/>
      </g>
     </g>
     <mask id="mask-9" fill="white">
      <use xlink:href="#path-8"/>
     </mask>
     <g mask="url(#mask-9)">
      <g transform="translate(67.019 247.25)">
       <mask id="mask-11" fill="white">
        <use xlink:href="#path-10"/>
       </mask>
       <g fill="none" fill-rule="evenodd" mask="url(#mask-11)"></g>
      </g>
     </g>
     <mask id="mask-13" fill="white">
      <use xlink:href="#path-12"/>
     </mask>
     <g mask="url(#mask-13)">
      <mask id="mask-15" fill="white">
       <use xlink:href="#path-14"/>
      </mask>
      <g mask="url(#mask-15)"></g>
     </g>
    </g>
   </g>
   <rect id="Rectangle-path" width="439.45" height="439.55"/>
  </g>
  <g transform="translate(541.22 85.175)">
   <g transform="translate(0)">
    <g id="XMLID_21_" transform="translate(541.5 177.96) scale(-1 1) rotate(180) translate(-541.5 -177)">
     <g fill="#757575" fill-rule="nonzero">
      <path id="XMLID_165_" d="m1.8734 217.14c0 75.294 63.281 136.59 138.56 136.59 41.632 0 71.269-16.318 93.594-37.634l-26.306-26.312c-15.976 14.991-37.625 26.651-67.288 26.651-54.954 0-97.913-44.296-97.913-99.29 0-54.967 42.959-99.29 97.913-99.29 35.647 0 55.943 14.314 68.953 27.327 10.668 10.671 17.642 25.974 20.322 46.977h-89.275v37.321h125.57c1.327-6.6627 2.0035-14.653 2.0035-23.319 0-27.978-7.6499-62.619-32.317-87.292-23.99-24.985-54.616-38.31-95.259-38.31-75.276 0-138.56 61.318-138.56 136.59z"/>
      <path id="XMLID_79_" d="m369.48 256.46c-48.631 0-88.26-36.983-88.26-87.942 0-50.647 39.629-87.942 88.26-87.942s88.26 37.321 88.26 87.942c0 50.959-39.629 87.942-88.26 87.942zm0-141.27c-26.645 0-49.62 21.992-49.62 53.301 0 31.648 22.976 53.301 49.62 53.301 26.645 0 49.62-21.654 49.62-53.301 0-31.309-22.976-53.301-49.62-53.301z"/>
      <path id="XMLID_68_" d="m562.03 256.46c-48.631 0-88.26-36.983-88.26-87.942 0-50.647 39.629-87.942 88.26-87.942s88.26 37.321 88.26 87.942c0 50.959-39.629 87.942-88.26 87.942zm0-141.27c-26.645 0-49.62 21.992-49.62 53.301 0 31.648 22.976 53.301 49.62 53.301 26.645 0 49.62-21.654 49.62-53.301 0-31.309-22.976-53.301-49.62-53.301z"/>
      <path id="XMLID_65_" d="m798.37 251.13v-14.314h-1.327c-8.6647 10.332-25.318 19.65-46.29 19.65-43.974 0-84.279-38.649-84.279-88.281 0-49.319 40.305-87.63 84.279-87.63 20.972 0 37.625 9.3174 46.29 19.988h1.327v-12.649c0-33.652-17.98-51.636-46.966-51.636-23.652 0-38.302 16.995-44.286 31.309l-33.644-14.002c9.6534-23.319 35.309-51.974 77.93-51.974 45.301 0 83.602 26.651 83.602 91.612v157.93h-36.636zm-44.286-135.93c-26.645 0-48.97 22.33-48.97 52.963 0 30.971 22.325 53.64 48.97 53.64 26.306 0 46.966-22.643 46.966-53.64-0.02602-30.633-20.66-52.963-46.966-52.963z"/>
      <polygon id="XMLID_64_" points="900.29 85.886 861.65 85.886 861.65 344.4 900.29 344.4"/>
      <path id="XMLID_51_" d="m1006.2 115.19c-19.645 0-33.644 9.005-42.621 26.651l117.58 48.643-4.0071 9.994c-7.3376 19.65-29.637 55.956-75.276 55.956-45.301 0-82.926-35.656-82.926-87.942 0-49.293 37.313-87.942 87.271-87.942 40.305 0 63.619 24.647 73.272 38.987l-29.975 19.988c-10.018-14.653-23.678-24.334-43.323-24.334zm-3.0183 107.28c15.326 0 28.31-7.6517 32.629-18.661l-78.607-32.637c-0.98876 33.99 26.332 51.297 45.977 51.297z"/>
     </g>
     <polygon id="XMLID_50_" points="0 0 1082.4 0 1082.4 353.96 0 353.96"/>
    </g>
   </g>
   <path id="Drive" d="m1217.4 270.51v-238.52h72.939c36.636 0 65.945 11.049 87.927 33.147 21.982 22.098 32.973 50.803 32.973 86.115 0 35.312-10.991 64.017-32.973 86.115s-51.291 33.147-87.927 33.147h-72.939zm30.641-29.316h42.298c27.533 0 49.348-7.8841 65.446-23.653 16.098-15.768 24.147-37.866 24.147-66.294 0-28.206-8.0488-50.248-24.147-66.127-16.098-15.879-37.913-23.819-65.446-23.819h-42.298v179.89zm222.96 29.316h-30.641v-163.24h29.309v26.651h1.3322c3.1085-8.8836 9.4921-16.213 19.151-21.987 9.6587-5.7744 19.04-8.6615 28.143-8.6615 9.1036 0 16.764 1.3325 22.981 3.9976l-11.657 28.65c-3.9967-1.5546-9.4366-2.3319-16.32-2.3319-11.102 0-20.927 4.3862-29.476 13.159-8.5485 8.7726-12.823 20.266-12.823 34.479v89.28zm113.05-197.88c-5.995 0-11.102-2.1098-15.321-6.3296s-6.3281-9.3277-6.3281-15.324 2.1093-11.104 6.3281-15.324 9.3256-6.3296 15.321-6.3296 11.102 2.1098 15.321 6.3296c4.2187 4.2197 6.3281 9.3277 6.3281 15.324s-2.1093 11.104-6.3281 15.324c-4.2188 4.2197-9.3256 6.3296-15.321 6.3296zm15.321 197.88h-30.641v-163.24h30.641v163.24zm93.404 0-65.945-163.24h33.306l47.96 126.59h0.66611l48.626-126.59h32.64l-66.611 163.24h-30.641zm190.99 5.3302c-24.646 0-44.685-8.2172-60.117-24.652s-23.147-37.2-23.147-62.296c0-23.764 7.4937-44.196 22.481-61.297 14.988-17.101 34.138-25.651 57.452-25.651 24.202 0 43.575 7.8841 58.118 23.653 14.544 15.768 21.815 36.867 21.815 63.296l-0.33306 5.6633h-128.89c0.88815 16.435 6.3835 29.427 16.486 38.977 10.103 9.5499 21.926 14.325 35.471 14.325 21.982 0 36.858-9.3277 44.63-27.983l27.311 11.327c-5.3289 12.659-14.099 23.264-26.311 31.814-12.212 8.5505-27.2 12.826-44.963 12.826zm43.964-106.6c-0.66611-9.3278-4.9403-18.211-12.823-26.651-7.8824-8.4394-19.595-12.659-35.138-12.659-11.324 0-21.149 3.5534-29.476 10.66-8.3265 7.1069-14.044 16.657-17.152 28.65h94.588z" fill="#757575"/>
  </g>
  <rect id="Rectangle" width="2565" height="465"/>
 </g>
</svg>
