<svg id="Logos" xmlns="http://www.w3.org/2000/svg" viewBox="0 0 467.1 122.4"><defs><style>.cls-1{fill:#0b161d;}.cls-2{fill:#179287;}</style></defs><path class="cls-1" d="M166.5,51.6a17.2,17.2,0,0,0-3.6-4,14.7,14.7,0,0,0-9.4-3.3c-7.9,0-15.9,6-15.9,16.6s8.1,16.9,15.9,16.9a15.8,15.8,0,0,0,9.7-3,12.5,12.5,0,0,0,5-7.4H150V59.5h29.6a27.5,27.5,0,0,1-2.2,12.3c-4.5,10.2-15,14.7-23.8,14.7-14.7,0-25.9-11.3-25.9-25.6s11.7-25.2,26-25.2c11,0,20.8,7,23.9,15.9Z"/><path class="cls-1" d="M186.7,36.6h8.7v7.7h-8.7Zm0,12.6h8.7V85.6h-8.7Z"/><path class="cls-1" d="M206.9,55.9h-6V49.2h6V36.6h8.7V49.2h6.2v6.7h-6.2V85.6h-8.7Z"/><path class="cls-1" d="M228.9,36.6h9.9V59.3L255,36.6h10.4L247.7,61l19.5,24.6H255.1l-16.3-22v22h-9.9Z"/><path class="cls-1" d="M271.9,49.2h8.2V54c1.6-3.2,4.6-5.8,10.1-5.9v8.7h-.4c-6.1,0-9.2,2.9-9.2,9.2V85.6h-8.7Z"/><path class="cls-1" d="M331.4,85.6h-8.7V80.3c-2.3,4.3-7.1,6.4-12.2,6.4-11.7,0-18.5-9.1-18.5-19.3s8.3-19.3,18.5-19.3c6.6,0,10.6,3.5,12.2,6.4V49.2h8.7Zm-30.7-18c0,4.5,3.2,11,11,11a10.3,10.3,0,0,0,9.7-5.8,14.9,14.9,0,0,0,1.4-5.1,12.9,12.9,0,0,0-1-5.1,10.7,10.7,0,0,0-10.1-6.4c-7.1,0-11,5.7-11,11.3Z"/><path class="cls-1" d="M340.8,36.6h8.7V63.1L362,49.2h10.4l-15.1,16,15.2,20.4h-9.9L349.5,67.4V85.6h-8.7Z"/><path class="cls-1" d="M387.4,76.9c4.5,3.7,10.4,2.2,13.8-1.5a9.4,9.4,0,0,0,2.4-9.7l6.2-6.5a20.8,20.8,0,0,1,1.5,11.6,17.8,17.8,0,0,1-4.8,9.8,19.1,19.1,0,0,1-27.1.7c-7.5-7.1-8.6-19.2-1-27.1a18.6,18.6,0,0,1,13.3-6.1,19.6,19.6,0,0,1,15.8,7.5Zm9.4-19.6c-2.7-2.1-8.7-2.8-13,1.9s-3.5,10.4-1.1,13Z"/><path class="cls-1" d="M418.5,49.2h8.2c0,1.6,0,3.1-.1,4.9,1.6-2.9,4.8-6.1,11.3-6,11.9.1,14.1,9.1,14.1,15.6V85.6h-8.6V65.8c0-5.4-1.8-9.6-7.9-9.6s-8.3,4.2-8.3,9.3V85.6h-8.7Z"/><path class="cls-2" d="M109.1,37.9a2,2,0,0,0-2.6-1.1,2.1,2.1,0,0,0-1.2,1.8,1.7,1.7,0,0,0,.1.7A43.3,43.3,0,0,1,108.3,55,44.7,44.7,0,0,1,69.5,99.3V78.4a27.9,27.9,0,0,0,3.9-1V94.9A41,41,0,0,0,83.5,19.1a1.9,1.9,0,0,0-2.7.8,2.9,2.9,0,0,0-.2.9,2.1,2.1,0,0,0,1,1.7,37.1,37.1,0,0,1-4.4,67.1V74.1a6,6,0,0,0,4.2-5.7,5.7,5.7,0,0,0-2.9-5.1C79.9,49.9,86,53.4,86,49.2V46.7c0-6.4-14.8-27.3-21.7-27.8H63c-6.9.5-21.8,21.4-21.8,27.8v2.5c0,4.2,6.1.7,7.5,14.1a5.9,5.9,0,0,0-2.9,5.1A6,6,0,0,0,50,74.1V89.6a37.2,37.2,0,0,1-4.4-67.1,2,2,0,0,0-.9-3.7,1.6,1.6,0,0,0-.9.3A41,41,0,0,0,53.9,94.9V77.4a24.8,24.8,0,0,0,3.9,1V99.3A44.7,44.7,0,0,1,19,55a45.5,45.5,0,0,1,2.8-15.7,2,2,0,0,0-1-2.5H20a2,2,0,0,0-1.8,1.2,48.6,48.6,0,0,0,43.5,65.6V78.9h3.9v24.6a48.6,48.6,0,0,0,43.5-65.6ZM72.6,65.6a4.1,4.1,0,0,1,5.6,0,3.8,3.8,0,0,1,1.2,2.8,3.8,3.8,0,0,1-1.2,2.9,4.1,4.1,0,0,1-5.6,0,4.3,4.3,0,0,1-1.2-2.9A4.2,4.2,0,0,1,72.6,65.6ZM54.7,71.3a3.9,3.9,0,0,1-2.8,1.1,3.8,3.8,0,0,1-4-4A4.1,4.1,0,0,1,49,65.6a4.2,4.2,0,0,1,2.9-1.1,3.9,3.9,0,0,1,2.8,1.1,4.1,4.1,0,0,1,1.1,2.8A4.2,4.2,0,0,1,54.7,71.3Z"/></svg>