<?xml version="1.0" encoding="UTF-8" standalone="no"?>
<svg
   xmlns:dc="http://purl.org/dc/elements/1.1/"
   xmlns:cc="http://creativecommons.org/ns#"
   xmlns:rdf="http://www.w3.org/1999/02/22-rdf-syntax-ns#"
   xmlns:svg="http://www.w3.org/2000/svg"
   xmlns="http://www.w3.org/2000/svg"
   xmlns:xlink="http://www.w3.org/1999/xlink"
   id="svg8"
   version="1.1"
   viewBox="0 0 38.364571 38.364589"
   height="38.36459mm"
   width="38.364571mm">
  <defs
     id="defs2">
    <linearGradient
       id="linearGradient893">
      <stop
         id="stop889"
         offset="0"
         style="stop-color:#ff2000;stop-opacity:1" />
      <stop
         id="stop891"
         offset="1"
         style="stop-color:#ff0000;stop-opacity:1" />
    </linearGradient>
    <linearGradient
       id="linearGradient881">
      <stop
         style="stop-color:#ffff00;stop-opacity:1"
         offset="0"
         id="stop877" />
      <stop
         style="stop-color:#ff2000;stop-opacity:1"
         offset="1"
         id="stop879" />
    </linearGradient>
    <linearGradient
       y2="28.447916"
       x2="185.20833"
       y1="76.072914"
       x1="132.29167"
       gradientUnits="userSpaceOnUse"
       id="linearGradient883"
       xlink:href="#linearGradient881" />
    <linearGradient
       gradientUnits="userSpaceOnUse"
       y2="25.802084"
       x2="193.14583"
       y1="37.708332"
       x1="181.23958"
       id="linearGradient895"
       xlink:href="#linearGradient893" />
  </defs>
  <metadata
     id="metadata5">
    <rdf:RDF>
      <cc:Work
         rdf:about="">
        <dc:format>image/svg+xml</dc:format>
        <dc:type
           rdf:resource="http://purl.org/dc/dcmitype/StillImage" />
        <dc:title></dc:title>
      </cc:Work>
    </rdf:RDF>
  </metadata>
  <g
     transform="translate(-134.9375,-236.14583)"
     id="layer1">
    <path
       id="path815"
       d="m 58.208333,52.260417 c 0,0 -1.322916,11.90625 5.291667,11.90625 6.614583,0 6.614586,-3.96875 6.614586,-7.9375 v -11.90625 h -7.9375 L 79.375,25.802083 95.25,44.322917 h -7.9375 v 17.197916 c 0,5.13408 -0.93329,8.387824 -3.96875,10.583334 -3.03546,2.195509 -7.420157,2.781282 -13.229167,2.645833 -5.809009,-0.135449 -12.460029,-0.460117 -15.875,-9.260417 -3.414971,-8.8003 3.96875,-13.229166 3.96875,-13.229166 z"
       style="fill:none;stroke:#000000;stroke-width:0.26458332px;stroke-linecap:butt;stroke-linejoin:miter;stroke-opacity:1" />
    <path
       id="path819"
       d="m 89.958332,25.802083 c 3.96875,0 3.96875,0 3.96875,0 v -3.96875 h 3.96875 v 3.96875 h 3.968748 v 3.968751 h -3.968748 v 3.96875 h -3.96875 v -3.96875 h -3.96875 z"
       style="fill:none;stroke:#000000;stroke-width:0.26458332px;stroke-linecap:butt;stroke-linejoin:miter;stroke-opacity:1" />
    <path
       id="path815-7"
       d="m 156.10417,31.09375 c 0,0 -17.19792,10.583334 -17.19792,21.166667 0,4.634949 0.3886,8.76348 3.96875,11.90625 3.57283,3.136341 9.01269,2.645832 10.58333,2.645832 6.61458,0 6.61459,-3.96875 6.61459,-7.9375 V 46.96875 h -7.9375 l 17.19791,-18.520835 15.875,18.520835 h -7.9375 v 13.229167 c 0.10298,5.133047 0,9.260416 -2.64583,11.90625 -2.64583,2.645833 -7.9375,3.96875 -14.55208,3.96875 -10.58333,10e-7 -17.95934,-1.186443 -22.48959,-5.291667 -7.22041,-6.542978 -6.61458,-10.583333 -6.61458,-15.875 0,-6.614583 1.14409,-8.872447 2.64583,-11.90625 1.51791,-3.066476 5.07039,-8.386709 10.58334,-10.583333 5.71682,-2.277858 11.90625,-1.322917 11.90625,-1.322917 z"
       style="fill:url(#linearGradient883);fill-opacity:1;stroke:none;stroke-width:0.26499999;stroke-linecap:butt;stroke-linejoin:miter;stroke-miterlimit:4;stroke-dasharray:none;stroke-opacity:1" />
    <path
       id="path819-4"
       d="m 181.23958,29.770833 c 3.96875,0 3.96875,0 3.96875,0 v -3.96875 h 3.96875 v 3.96875 h 3.96875 v 3.968751 h -3.96875 v 3.968751 h -3.96875 v -3.968751 h -3.96875 z"
       style="fill:url(#linearGradient895);fill-opacity:1;stroke:none;stroke-width:0.26458332px;stroke-linecap:butt;stroke-linejoin:miter;stroke-opacity:1" />
    <path
       id="path815-7-4-4-3-6-0"
       d="m 144.19792,274.51042 -1e-5,-18.52084 h -9.26041 l 17.19791,-18.52084 15.875,18.52084 h -9.2604 l -1e-5,18.52084 z"
       style="fill:#00acff;fill-opacity:1;stroke:none;stroke-width:0.26499999;stroke-linecap:butt;stroke-linejoin:miter;stroke-miterlimit:4;stroke-dasharray:none;stroke-opacity:1" />
    <path
       id="path819-4-2-7-5-5-9"
       d="m 161.39582,240.11458 c 3.96875,0 3.96875,0 3.96875,0 v -3.96875 h 3.96875 v 3.96875 h 3.96875 v 3.96875 h -3.96875 v 3.96875 h -3.96875 v -3.96875 h -3.96875 z"
       style="fill:#00acff;fill-opacity:1;stroke:none;stroke-width:0.26458332px;stroke-linecap:butt;stroke-linejoin:miter;stroke-opacity:1" />
  </g>
</svg>
